<svg xmlns="http://www.w3.org/2000/svg" xml:space="preserve" fill-rule="evenodd" stroke-linejoin="round" stroke-miterlimit="2" clip-rule="evenodd" viewBox="0 0 536 154"><path fill-rule="nonzero" d="M66 53V15h18v30l-18 8Zm-9-33v79l-9 4V25l9-5Zm36 31 9-4V13l6-13H9L0 16l7 10 14-7v-5h20l-11 7v24h-7l-7 14 14 7v34l-4 10 13 7 29-13 21 13 22-15V61L93 51ZM66 82V63l17-7 10 6v37L66 82Zm49-72 5 9v88l18 11 13-8-4-10h-9V10h-23Zm62 7-16-7-8 16 16 8 8-17Zm-9 101 13-8-4-10h-4V56l4-10h-22v64l13 8Zm13-59h9v48l18 11 13-8-4-10h-9V59h9l6-13h-15V25l-18 12v9h-3l-6 13Zm72 61 31-15V79l-18 8v10l-18 9 37-60h-57v30l18-11V55h14l-33 52h1l25 13Zm57-51V10h-22l4 9v82l-4 9 13 8 14-8-5-10V85l9 6v18l9 9 13-8-4-9V86l-18-11 18-12v-8l4-9h-22v18l-9 5Zm58-3 6-7 9 5 13-8-5-10h-17l-6 6v-6h-22l4 9v46l-4 9 13 8 13-8-4-10V66Zm55-49-16-7-8 16 16 8 8-17Zm-10 101 14-8-5-10h-4V56l5-10h-23v64l13 8Zm64-62 4-10h-49v62l18 10 27-17V79l-18 12v5l-9 6V87l27-16V56Zm-27-1h9v16l-9 6V55Zm36-1v52l18 11 9-5v25l-8 5-11-6-13 7 5 11h17l28-18V55l4-9h-34l-15 8Zm27 41-9 6V55h9v40Z"/></svg>