<svg xmlns="http://www.w3.org/2000/svg" xml:space="preserve" fill-rule="evenodd" stroke-linejoin="round" stroke-miterlimit="2" clip-rule="evenodd" viewBox="0 0 907 169" width="50"><g fill-rule="nonzero"><path d="M55.193 0c-9 1-16 3-22 6l-14 10a119.952 119.952 0 0 0-10 14l-2 5c-2 4-3 5-4 11l-2 9-1 4v12a79.005 79.005 0 0 0 2 24l4 13c2 5 10 17 14 21l13 9 8 3c7 2 9 3 19 3 6 0 6 0 10-2 11-2 17-5 22-10 3-3 6-12 6-19 0-4-2-11-4-13l-2-1c-2 0-4 2-5 4l-3 5-3 4-5 4c-5 3-6 3-12 3l-6 1-3-1c-8-2-15-7-17-13l-3-5-4-12-2-18v-9l1-11c2-9 3-11 6-17l4-6 3-2c2-2 4-3 11-3l7-1 5 3c5 3 5 3 8 7l1 3c0 2 2 6 4 7 1 2 1 2 3 2l7-4c3-3 4-8 4-15 0-6 0-7-3-11-2-4-6-7-10-9-4-3-14-5-18-5h-7Zm99 1-6 1c-4 0-7 1-14 5l-12 10c-5 5-7 7-9 13l-2 5c-4 5-6 11-6 19l-1 8v12c0 11 0 14 2 21l2 7c0 4 1 6 4 10 4 8 7 12 13 18 8 7 14 10 23 13l14 1c13 0 15-1 22-4a683.784 683.784 0 0 1 11-6c4-2 8-7 11-11l6-9 2-4c1-2 2-3 5-16l2-20c1-13-2-27-6-38l-6-12-4-4c-2-4-4-6-11-11-7-4-9-5-12-5l-7-2-4-2h-7l-10 1Zm13 21 7 4c6 4 7 5 13 15l3 7 3 8c1 4 2 8 2 17v10c-2 13-3 21-7 27l-4 6-9 6-9 1-8-1-9-6-10-11-3-8c-4-9-4-8-5-24-1-17-1-19 3-30 3-9 4-11 9-15l7-5 7-2 10 1Zm691-22-7 1-19 10c-4 3-9 11-11 17v9c0 6 0 11 2 15 1 4 4 11 7 14l12 9a208.952 208.952 0 0 1 16 8l6 3c6 5 8 7 11 14l2 3-1 6-1 8-3 4c-3 3-5 4-13 4l-8-1c-5-2-8-4-9-6-4-5-5-6-5-10-1-5-3-9-5-10-2-2-6 1-9 6l-3 15 6 11a31.005 31.005 0 0 0 17 11l11 2c14 1 18 1 27-3 8-3 10-4 14-8 5-6 7-8 9-16l2-13c0-7-1-9-5-18l-6-10-11-10a161.039 161.039 0 0 0-20-9c-1-1-3-3-5-3-2-2-5-4-7-8l-2-3V32l1-3 2-5 4-4 2-1h10l2 1 5 4 3 5 1 5c0 5 3 8 6 8 4 0 8-2 10-8 3-4 3-7 3-11l-2-9-6-6c-4-3-7-5-13-6l-10-2h-10Zm-451 2-7 2-10 5c-6 5-8 7-11 18l1 23 2 6 2 5c0 2 1 2 5 6l6 4c5 3 6 5 4 11l-1 3 4 5 2 1 2-3a74.996 74.996 0 0 0 6-5c1-1 2 0 2 1l7 7 2-2 3-4 3-2 1 2 6 7 4-6-1-3-1-7 1-5c1-2 3-3 6-4l2-1 3-5c3-6 3-6 3-20v-9l-1-3-1-5-2-5-6-8-6-5-6-3-6-1h-18Zm-3 36c2 1 2 3 2 6l-1 3-4 1h-4c-2-2-3-6-2-8 2-3 6-3 9-2Zm30 1 2 5c0 2-1 3-3 4s-6 0-7-1l-1-7c1-2 3-2 6-2l3 1Zm-14 19c3 3 6 8 4 11 0 1-2 2-5 2-6 0-8-1-8-5 0-6 5-10 9-8Zm126-56h-21l-6 1h-11l-8 1-2 1c-5 3-6 6-1 11l4 3 2 4 2 6 1 18c-.81 12.32-.81 24.68 0 37v24l-2 13-1 3-3 2-6 6-1 4 4 4h10a669.513 669.513 0 0 1 35 0c3-2 5-4 4-7l-7-8c-2-1-2-1-3-5-2-4-2-7-2-14l-1-9v-3l3-1c1-2 3-2 3-2a37.007 37.007 0 0 1 14 14l3 5 2 6 3 5a205.015 205.015 0 0 1 9 22c5 12 6 14 10 19 4 3 6 5 13 6l5 1h5c6-1 8-2 10-4 2-3 2-6-1-10l-4-3c-4-2-9-8-11-13l-3-5-2-6-6-17-3-7-9-14-1-4v-3l3-2 8-10c3-6 4-7 5-14 2-6 2-7 2-13l-1-10-1-6c-1-4-5-11-8-14-2-3-5-4-9-6l-5-2c-5-2-14-4-21-4Zm3 18 7 1 7 8c1 3 2 4 2 15l1 5-2 5-3 8c-3 4-5 5-8 6l-12 1c-2 0-2 0-5-3l-3-3V26l2-2c1-2 2-3 5-4l3-1 6 1Z"/><path d="M643.193 2c-5.315.579-10.654.913-16 1h-9c-8 0-10 1-12 3-3 2-4 4-2 6l7 8c1 1 2 2 3 8 1 4 2 16 1 19a276.974 276.974 0 0 0 1 37v13l-3 24-2 4c-5 3-7 6-8 9-1 2 1 4 4 6h37c4 1 7 0 9-2 2-1 3-2 2-4 0-2-5-7-7-9-2-1-2-1-3-5-2-5-2-7-2-13l-1-12 6-4 8 5 6 9 3 5 6 12a185.095 185.095 0 0 1 11 27c2 6 4 9 8 13 3 4 5 5 13 6l4 1h6l7-2c3-2 4-5 4-8l-15-15-3-5-3-6-1-3-10-27-3-5-5-7-2-2v-6l1-1c4-2 6-5 8-7 5-8 6-10 8-17l1-14 1-6-2-6c-2-7-3-10-6-14-3-5-7-8-13-10l-4-2-9-3-12-1h-12Zm15 18 7 1 7 8c2 3 2 5 3 15v5l-1 5-4 8c-2 4-5 5-8 6l-12 1h-2l-3-3-3-4V26l2-1 2-3 7-3 5 1Zm64-17-3 1-5 5-4 14 2 5c2 2 4 2 11-3l5-4h6l9 1 3 1 1 2 2 3v4c.013 28.678-.654 57.353-2 86-1 7-1 6-4 9l-6 6-1 3c0 2 2 3 4 5h12l21 1 11-1 5-4c0-3 0-4-5-8l-6-7-1-9a544.806 544.806 0 0 1-1-58l1-19c-1-4 0-7 1-10 2-3 2-3 5-4l9-1h6l3 3 6 4c4 2 6 2 8-1 1-2 1-4-1-9l-1-5-1-3c0-2-4-5-6-6h-8a704.02 704.02 0 0 1-76-1Zm-488 1-6 2c-2 2-2 4-1 7l6 6 3 4 2 3v17a366.871 366.871 0 0 0 1 31v38l-4 12-8 8c-2 3 0 7 4 8h41l2-1c2-1 4-3 4-5l-2-3-6-6c-2-1-2-1-2-3-2-7-2-9-2-17V88l2-3 3-4 3 1 6-1 8 1h11l2 3 3 2v25c0 9 0 10-6 16-5 5-6 6-3 9l2 3 2 1h15l26-1 4-3v-4l-5-7-5-5-1-3-1-20V65l-1-13 1-24 2-4 3-5 7-6c1-3 0-6-3-8l-5-1h-38l-5 4v3l9 9a150 150 0 0 1 2 35l-2 5-3 3h-15l-10 1c-3-1-2 0-6-6l-2-1v-6a122.984 122.984 0 0 1 2-30l3-2c5-4 7-8 7-10l-4-5h-15c-8.324-.57-16.676-.57-25 0Zm133 75-5 15c-1 2-1 3 2 5s4 2 10 3l13 4 5 2 2 1v1l-1 2-9 4-5 2-3 1-5-1h-6l-4 1c-4 2-4 4-1 12l3 7c2 2 4 3 7 3s4-1 8-5l3-3 3-1 15-6 6-3 6-2 2-1h5c6 0 10 1 17 4l16 6 6 3 4 4 6 5h6c2-1 3-2 4-8l3-8v-3c0-2-1-3-4-4h-16a93.968 93.968 0 0 1-18-8v-1c0-2 0-2 4-3l5-3 4-2 16-2c4-2 6-4 5-7l-4-11c-1-2-2-3-5-3-2 0-5 1-6 3l-10 8a152.2 152.2 0 0 1-13 5l-8 3-6 3h-11l-3-1-7-3-16-6-12-10c-5-3-6-3-8-2Z"/></g></svg>