<svg xmlns="http://www.w3.org/2000/svg" xml:space="preserve" fill-rule="evenodd" stroke-linejoin="round" stroke-miterlimit="2" clip-rule="evenodd" viewBox="0 0 62 95"><path fill-rule="nonzero" d="M38.044 64.56c-1.99 1.35-4.25 2.89-7.13 2.89s-5.14-1.54-7.13-2.89c-1.04-.71-2.02-1.37-2.84-1.64-.79-.26-1.84-.32-2.98-.36v31.73s8.81-6.36 12.96-13.64c3.89 7.28 12.94 13.64 12.94 13.64V62.56c-1.14.04-2.19.1-2.99.36-.81.26-1.79.93-2.83 1.64Z"/><path fill-rule="nonzero" d="M61.584 22.28c-1-3.11-5.1-4.67-6.98-7.25-1.9-2.61-2.13-6.98-4.74-8.88-2.58-1.88-6.8-.76-9.9-1.77-2.99-.97-5.73-4.38-9.05-4.38-3.32 0-6.06 3.41-9.06 4.38-3.1 1.01-7.31-.11-9.9 1.77-2.61 1.9-2.84 6.27-4.74 8.88-1.88 2.58-5.97 4.14-6.98 7.25-.97 2.99 1.39 6.64 1.39 9.96 0 3.32-2.36 6.98-1.39 9.97 1.01 3.1 5.1 4.66 6.98 7.25 1.9 2.61 2.13 6.97 4.74 8.87 1.6 1.16 3.82 1.18 6.01 1.27 1.35.05 2.7.12 3.89.5 3 .98 5.74 4.39 9.06 4.39 3.32 0 6.06-3.41 9.05-4.39 1.19-.38 2.54-.45 3.9-.5 2.19-.09 4.41-.11 6-1.27 2.61-1.9 2.84-6.26 4.74-8.87 1.88-2.59 5.98-4.15 6.98-7.25.98-2.99-1.39-6.65-1.39-9.97 0-3.33 2.37-6.98 1.39-9.96Zm-20.08 30.57a22.972 22.972 0 0 1-10.59 2.56c-3.82 0-7.42-.92-10.59-2.56-7.47-3.85-12.57-11.63-12.57-20.61 0-12.79 10.37-23.16 23.16-23.16 12.79 0 23.16 10.37 23.16 23.16 0 8.98-5.1 16.75-12.57 20.61Z"/><path d="M30.914 11.92c11.2 0 20.32 9.12 20.31 20.31 0 9.97-7.21 18.28-16.7 19.99-1.17.23-2.38.33-3.61.33s-2.45-.11-3.62-.33c-9.47-1.71-16.69-10.02-16.69-19.99 0-11.19 9.11-20.31 20.31-20.31Zm-2.542 7.044c-1.577.396-2.717 1.07-3.857 2.26-1.111 1.17-1.735 2.231-2.271 3.867-.466 1.418-.664 2.776-.664 4.6 0 4.254 1.388 7.516 4.015 9.459.328.238.595.486.595.536 0 .059-.198.228-.446.376-.753.476-1.31.982-1.794 1.626-.506.675-.576.992-.278 1.26.317.287.615.198 1.299-.397 1.09-.962 1.457-1.14 2.31-1.14.962 0 1.685.337 4.115 1.943 3.043 2.013 4.085 2.429 5.72 2.34 1.438-.069 2.43-.585 2.886-1.467.188-.357.307-1.468.198-1.874-.05-.218-.13-.268-.387-.278-.168 0-.456.109-.624.228-.704.496-1.755.625-2.856.347-.823-.208-4.035-1.775-3.976-1.943.02-.07.456-.268.972-.446 1.14-.397 1.834-.774 2.618-1.398 1.665-1.349 2.934-3.738 3.43-6.504.238-1.289.238-4.046 0-5.335-.734-4.065-2.836-6.811-6.058-7.912-.744-.258-1.001-.287-2.498-.317-1.38-.03-1.805 0-2.45.169Zm3.668 2.429c2.023 1.001 3.48 3.579 3.996 7.069.248 1.705.158 4.234-.2 5.622-.673 2.578-2.021 4.075-3.915 4.342-2.598.357-4.828-1.358-5.988-4.6-.952-2.647-1.131-6.078-.476-8.656.406-1.566 1.318-3.024 2.25-3.609.833-.505 1.279-.614 2.449-.585 1.03.02 1.15.05 1.884.417Z"/></svg>