<svg xmlns="http://www.w3.org/2000/svg" xml:space="preserve" fill-rule="evenodd" stroke-linejoin="round" stroke-miterlimit="2" clip-rule="evenodd" viewBox="0 0 80 80"><path fill-rule="nonzero" d="M58.801 41.5H41.5v15.398c5 0 9.801.301 14.5.801 1.699-4.801 2.699-10.301 2.801-16.199ZM25.102 19.398c4.301.398 8.801.602 13.398.699V6.601c-5.398.797-10.199 5.598-13.398 12.797ZM24 57.699c4.699-.5 9.5-.699 14.5-.801V41.5H21.199c.102 5.899 1.102 11.398 2.801 16.199ZM41.5 6.602v13.5c4.602 0 9-.301 13.398-.699-3.199-7.203-8-12.004-13.398-12.801ZM56 22.301c-4.699.5-9.5.699-14.5.801V38.5h17.301c-.102-5.899-1.102-11.398-2.801-16.199ZM21.199 38.5H38.5V23.102c-5 0-9.801-.301-14.5-.801-1.699 4.801-2.699 10.301-2.801 16.199Zm-3 3H6.5a33.377 33.377 0 0 0 6.102 17.801c2.699-.5 5.5-.898 8.398-1.301-1.699-4.898-2.699-10.5-2.801-16.5ZM21 22c-2.898-.301-5.699-.801-8.398-1.301A33.377 33.377 0 0 0 6.5 38.5h11.602c.199-6 1.199-11.602 2.898-16.5Zm40.801 16.5h11.602a33.377 33.377 0 0 0-6.102-17.801c-2.699.5-5.5.898-8.398 1.301 1.797 4.898 2.797 10.5 2.898 16.5ZM14.699 61.898c3.801 4.398 8.801 7.801 14.5 9.801C26.398 69 24 65.3 22.097 60.898c-2.496.301-4.996.601-7.398 1Zm36.102 9.801c5.699-1.898 10.602-5.301 14.5-9.801-2.398-.398-4.898-.801-7.398-1.101C56 65.301 53.602 69 50.801 71.699ZM38.5 73.398v-13.5c-4.602 0-9 .301-13.398.699 3.199 7.203 8 12.004 13.398 12.801ZM50.801 8.301C53.602 11 56 14.699 57.903 19.102c2.5-.301 5-.602 7.398-1.102-3.902-4.398-8.801-7.8-14.5-9.699ZM41.5 59.898v13.5c5.398-.801 10.199-5.602 13.398-12.801-4.398-.398-8.797-.699-13.398-.699ZM59 58c2.898.301 5.699.801 8.398 1.301A33.377 33.377 0 0 0 73.5 41.5H61.801c-.102 6-1.102 11.602-2.801 16.5ZM29.199 8.301c-5.699 1.898-10.602 5.301-14.5 9.801 2.398.398 4.898.801 7.398 1.101C24 14.7 26.398 11 29.199 8.301Z"/><path fill-rule="nonzero" d="M40 0C17.898 0 0 17.898 0 40s17.898 40 40 40 40-17.898 40-40S62.102 0 40 0Zm29.301 18.301C73.801 24.403 76.5 31.903 76.5 40c0 8.102-2.699 15.602-7.199 21.699 0 .102-.102.102-.199.199C62.5 70.801 51.899 76.5 40 76.5c-11.899 0-22.398-5.699-29.102-14.5-.102-.101-.199-.199-.199-.301-4.5-6.101-7.2-13.602-7.2-21.699 0-8.101 2.7-15.602 7.2-21.699 0-.101.101-.101.101-.199C17.499 9.204 28.101 3.5 39.999 3.5c11.898 0 22.5 5.801 29.199 14.602 0 .098.102.098.102.199h.001Z"/></svg>