<svg xmlns="http://www.w3.org/2000/svg" xml:space="preserve" fill-rule="evenodd" stroke-linejoin="round" stroke-miterlimit="2" clip-rule="evenodd" viewBox="0 0 111 56"><path d="m91.34 24.078-4.07-4.582-6.789-2.891L68.399 5.609l-3.934 3.024-2.91-1.254L56.02 0 42.739 10.234l-2.188-2.359-8.312 8.484-.914-1.602-12.664 9.891 6.445-.836 1.43-3.519 7.816-4.11-.59 3.277 3.18-3.277 2.433-3.765.246 4.355 4.625 3.941-2.972-4.128-.074-4.032 4.472 3.629-2.687-4.164 8.465 5.84-5.61-6.449L51.45 14l.765 2.359 2.68.91 1.254 4.281 4.703-.836 7.625 1.18-7.285-3.102-1.352-2.187-4.281-2.512 7.137 2.512-8.141-8.731 3.195 1.274-2.433-4.11.968-1.636 2.719 4.011 7.211 5.879 1.899 2.985-2.012.844 2.664-.079.34-2.113 6.754 3.274-8.961-8.559 2.758.758-2.512-2.434 5.324 2.469 1.086 1.926 5.914 5.972 7.211 2.379 4.66 3.364Z"/><path fill-rule="nonzero" d="M82.834 29.97c-1.377.128-2.457 1.004-2.746 2.221-.102.431-.067 1.271.071 1.702.12.383.49.947.76 1.17.307.248.547.386 1.471.857.92.462 1.24.67 1.453.942.53.671.556 1.702.058 2.186-.342.33-1.169.396-1.698.138-.56-.271-.924-.773-1.035-1.413-.116-.653-.302-.742-.707-.324-.2.208-.266.315-.346.59-.342 1.12.409 2.191 1.808 2.574.534.146 1.787.146 2.325 0 .59-.16 1.022-.396 1.377-.756.542-.542.791-1.204.791-2.124 0-.827-.209-1.449-.675-2.044-.342-.431-.667-.645-2.191-1.458-.689-.369-1.138-.742-1.262-1.057-.169-.427-.058-1.196.222-1.511.418-.476 1.262-.454 1.698.044.186.213.249.427.249.875 0 .45.093.6.373.6.27 0 .64-.213.822-.48.595-.862.249-1.99-.756-2.466-.502-.235-1.297-.338-2.062-.267Zm-9.763.137a33.68 33.68 0 0 1-1.27.08c-.827.045-.867.058-.907.378-.045.311.049.458.377.609.334.15.463.293.57.63.066.2.084.583.106 2.525a98.944 98.944 0 0 1 0 3.31c-.045 1.41-.116 1.61-.667 1.885-.337.169-.435.329-.377.63.062.33-.014.316 2.106.316 1.902 0 1.902 0 1.986-.102.094-.115.112-.462.032-.609-.027-.049-.183-.155-.352-.235-.337-.16-.493-.342-.577-.693-.031-.116-.067-.667-.08-1.227l-.027-1.013.16.027c.311.053.724.293.969.56.266.293.43.608.76 1.48.635 1.688.99 1.99 2.324 1.99.96 0 1.169-.102 1.169-.573 0-.338-.08-.427-.471-.547-.596-.177-.765-.426-1.187-1.737-.244-.76-.4-1.04-.724-1.285a1.64 1.64 0 0 1-.222-.19c-.005-.014.08-.085.195-.16.498-.312.978-.992 1.187-1.676.226-.733.226-1.804.008-2.515a2.468 2.468 0 0 0-.684-1.058c-.293-.258-.96-.578-1.462-.71-.342-.09-.542-.108-1.4-.116a21.896 21.896 0 0 0-1.542.026Zm2.569 1.4c.235.12.564.498.666.773.063.156.098.4.111.765.045 1.062-.284 1.75-.96 2.008-.208.08-.36.102-.728.098-.258 0-.529-.018-.609-.044l-.138-.04v-1.582c0-1.72.005-1.756.262-1.947.25-.182 1.062-.204 1.396-.031Zm29.116-1.4c-.297.027-.87.062-1.275.08-.827.045-.862.058-.907.378-.04.302.05.449.351.59.147.068.307.16.351.2.152.139.254.4.307.783.067.507.107 4.76.053 5.737-.062 1.133-.16 1.404-.595 1.609-.369.169-.431.253-.431.56 0 .453-.125.426 2.08.426 1.906 0 1.906 0 1.986-.102.093-.115.116-.462.036-.609-.027-.049-.183-.155-.347-.23-.551-.263-.627-.494-.662-2l-.027-1.045.156.031c.089.014.422.04.742.058.724.036 1.209-.044 1.75-.302.49-.236.854-.538 1.112-.929.409-.618.564-1.209.564-2.182-.004-1.022-.209-1.617-.738-2.15-.213-.214-.4-.338-.728-.503-.716-.346-1.062-.409-2.24-.426a21.82 21.82 0 0 0-1.538.026Zm2.56 1.396c.573.293.827.87.787 1.8-.058 1.337-.774 1.924-2.076 1.706l-.329-.058-.035-.569c-.018-.31-.022-1-.013-1.524.017-1.035.048-1.173.297-1.338.258-.164 1.058-.177 1.369-.017ZM48.919 30.16a.481.481 0 0 0-.178.196c-.04.08-.645 1.898-1.338 4.04-1.257 3.875-1.524 4.617-1.728 4.843-.063.067-.263.187-.445.272-.187.084-.36.195-.387.248-.08.152-.057.494.036.614.084.106.084.106 1.529.102 1.43 0 1.44 0 1.524-.107.053-.066.084-.182.084-.346 0-.218-.017-.263-.142-.37a1.062 1.062 0 0 0-.23-.146c-.183-.058-.183-.373-.01-.782l.098-.222h2.84l.07.222c.17.547.143.675-.177.849-.235.124-.329.315-.28.582.062.338.009.329 1.942.324 1.684-.004 1.733-.009 1.827-.102.07-.071.097-.16.097-.329.005-.275-.11-.426-.395-.51-.227-.072-.476-.285-.627-.538-.062-.107-.258-.583-.435-1.058-.542-1.444-2.76-7.24-2.862-7.48-.062-.137-.147-.248-.227-.288a.788.788 0 0 0-.586-.013Zm.697 5.613c.25.72.454 1.325.454 1.342 0 .018-.427.036-.943.036-.728 0-.933-.013-.915-.058.013-.031.218-.653.453-1.382.236-.729.445-1.306.467-1.284.018.022.235.63.484 1.346Zm6.542-5.613c-.591.027-1.134.067-1.2.094-.151.058-.249.302-.205.524.036.187.094.24.463.422.333.165.466.378.542.863.066.422.066 6.039 0 6.519-.054.369-.16.644-.302.764a3.369 3.369 0 0 1-.365.209c-.249.12-.293.16-.329.307a.981.981 0 0 0-.009.342c.027.138.063.186.183.235.177.071 1.977.143 3.44.138.915-.004 1.04-.018 1.448-.124 1.093-.294 1.693-.787 2.169-1.787.426-.902.55-1.635.555-3.288 0-1.511-.067-1.996-.422-2.924-.413-1.076-1.333-1.898-2.515-2.236-.351-.097-1.858-.124-3.453-.057Zm3.364 1.45c.493.253.817.83.95 1.692.09.543.138 2.116.094 2.858-.102 1.68-.48 2.72-1.098 3.022-.24.12-.293.124-.675.106-.511-.03-.729-.129-.862-.39-.094-.178-.094-.263-.08-3.031.013-3.018.053-3.853.186-4.129.12-.244.24-.284.778-.266.396.013.507.035.707.137ZM.56 30.21a.357.357 0 0 0-.204.164C.28 30.529 0 31.743 0 31.929c0 .191.147.32.369.32.209 0 .378-.115.542-.378.187-.293.333-.342.978-.337.63.004.848.066.99.28.08.124.085.306.076 3.355 0 2.24-.022 3.32-.058 3.546-.084.489-.2.662-.586.875-.178.098-.342.2-.36.232-.071.11-.04.533.044.64.08.102.09.102 1.902.097H5.8c.165-.004.267-.173.267-.44 0-.289-.036-.333-.444-.542-.307-.15-.45-.324-.543-.653-.08-.285-.097-6.64-.022-6.946.076-.293.205-.373.72-.44.32-.04.507-.04.742 0 .28.049.334.076.458.227.342.426.422.484.64.484.244 0 .364-.098.36-.306 0-.072-.071-.458-.156-.85-.169-.773-.23-.892-.475-.906-.076 0-1.04.01-2.142.027a86.391 86.391 0 0 1-3.258-.005c-.684-.017-1.31-.017-1.386 0Zm23.517-.005c-.533.044-3.03.071-4.124.044-.778-.022-.786-.022-.875.085-.103.129-.12.502-.027.626.031.05.196.152.36.232.364.177.484.342.551.746.076.427.124 5.568.062 6.288-.075.898-.173 1.098-.64 1.307-.333.146-.39.23-.39.533 0 .156.026.24.097.311.102.102.111.102 1.413.071 1.213-.026 3.355.018 4.182.09.515.044.533.03.724-.894.182-.862.196-1.049.076-1.156-.098-.088-.431-.106-.569-.03-.049.026-.142.137-.209.248-.142.245-.333.431-.506.493-.187.072-1.565.067-1.707-.008-.315-.16-.364-.4-.404-2.036l-.036-1.204.178-.031c.227-.045.742.009.969.098.226.088.457.36.564.657.098.271.191.37.387.41.097.017.169 0 .253-.068l.115-.093.014-1.577c.009-1.071 0-1.636-.036-1.756-.066-.226-.217-.293-.44-.2-.133.054-.177.116-.284.391-.142.374-.338.582-.618.658-.213.062-.942.067-1.035.009-.05-.031-.058-.271-.045-1.293.027-1.773-.009-1.72 1.254-1.72.955 0 1.035.027 1.328.489.111.173.236.324.28.342.151.058.485.031.56-.044.102-.103.089-.272-.075-1.116-.183-.902-.223-.96-.631-.95-.152.004-.471.026-.716.048Zm18.527 0c-.516.044-2.978.071-4.129.044-.773-.017-.79-.017-.875.085-.098.124-.111.404-.031.582.049.111.209.213.44.28.19.058.386.32.47.635.076.276.08.605.085 3.453 0 3.969.01 3.924-.64 4.235-.169.08-.337.196-.364.25-.076.142-.031.555.067.626.062.044.6.058 2.213.058 1.28-.005 2.444.017 2.91.053.823.062.92.049 1.018-.138.076-.138.369-1.635.338-1.72-.058-.168-.165-.24-.365-.24-.288 0-.328.027-.555.374-.289.449-.387.48-1.391.462-.742-.018-.778-.022-.893-.129a.751.751 0 0 1-.17-.28c-.052-.178-.15-2.853-.106-2.897.05-.045.84-.014 1.013.044.276.093.49.316.658.68.12.262.182.347.302.396.183.075.356.008.422-.165.063-.16.063-3.195 0-3.355-.062-.169-.244-.231-.435-.151-.129.053-.173.115-.262.355-.138.383-.36.631-.631.698-.245.062-.956.067-1.045.009-.053-.036-.062-.253-.044-1.275.036-1.77.013-1.738 1.253-1.738.916 0 1.049.04 1.293.418.254.39.325.444.547.444.467 0 .484-.067.28-1.084-.2-.996-.227-1.036-.636-1.045a7.863 7.863 0 0 0-.737.036Zm25.663 0c-.537.044-3.03.071-4.124.044-.782-.022-.79-.022-.875.085-.107.129-.12.502-.027.626.031.05.196.152.36.232.36.177.48.342.551.746.08.445.125 5.604.063 6.315-.085.88-.183 1.07-.64 1.28-.334.146-.396.23-.396.533 0 .156.027.24.102.311.098.102.111.102 1.409.071 1.222-.026 3.364.018 4.19.09.516.048.538.017.73-.939.173-.862.182-1.004.062-1.11-.094-.085-.427-.107-.565-.032-.044.023-.164.17-.262.325-.28.44-.391.48-1.364.462-1.165-.022-1.125.044-1.191-1.893-.027-.751-.031-1.382-.014-1.4.072-.071.863-.031 1.08.053.254.098.507.378.605.68.084.258.186.36.377.4a.28.28 0 0 0 .254-.066l.115-.094.018-1.577c.009-1.071-.004-1.636-.04-1.756-.067-.226-.218-.293-.44-.2-.129.054-.173.116-.28.391-.142.374-.338.583-.622.658-.209.062-.942.067-1.031.009-.053-.031-.062-.267-.044-1.293.022-1.36.035-1.436.284-1.622.124-.094.196-.098.933-.098.991 0 1.067.027 1.369.493.111.17.235.325.275.342.147.054.48.027.556-.048.102-.103.093-.272-.076-1.116-.182-.902-.217-.96-.63-.95-.147.004-.472.026-.712.048Zm-59.344.12c-.08.075-.102.155-.102.315 0 .303.053.378.387.53.493.226.573.395.644 1.315.067.906.027 6.061-.049 6.354-.093.352-.226.512-.564.672-.173.084-.329.195-.36.257-.12.231-.04.618.138.676.115.035 3.595.035 3.71 0 .178-.058.258-.445.138-.676-.031-.062-.187-.173-.36-.257-.262-.125-.32-.174-.418-.374-.11-.226-.115-.27-.146-1.635-.014-.769-.027-1.404-.022-1.409.022-.035 1.622-.067 2.19-.04l.73.036v.96c-.005 1-.059 1.786-.143 2.048-.062.182-.316.414-.507.458a.454.454 0 0 0-.235.147c-.125.155-.129.524-.013.666.084.102.084.102 1.942.102 1.83 0 1.862 0 1.96-.097.075-.076.097-.156.097-.334 0-.209-.018-.253-.151-.373-.084-.076-.191-.138-.24-.138-.173 0-.458-.257-.538-.497-.124-.356-.177-1.862-.155-4.56.022-2.622.035-2.786.275-3.044.058-.067.24-.178.4-.253.33-.147.387-.227.387-.547 0-.418.084-.4-2.018-.404-2.137 0-2.04-.022-2.04.44 0 .306.04.364.374.506.244.107.382.25.462.476.053.15.129 1.59.138 2.626l.004.409-2.915-.027-.013-.862c-.01-.475.004-1.142.03-1.484.059-.796.112-.916.503-1.107.155-.075.32-.168.36-.2.164-.142.129-.657-.053-.733-.045-.022-.903-.04-1.902-.04l-1.818-.009-.107.107Zm21.277 0c-.08.08-.101.155-.101.329 0 .289.053.364.422.542.266.129.31.173.43.409.116.23.139.346.179.933.066.933.026 6.013-.05 6.301-.093.352-.226.512-.564.672-.173.084-.329.195-.36.257-.106.205-.053.56.094.654.026.017 1.004.03 2.173.03 1.28-.004 2.44.018 2.906.054.822.062.92.049 1.022-.138.027-.049.12-.449.209-.889.129-.635.151-.817.107-.897-.076-.147-.13-.17-.378-.17-.253-.004-.333.063-.564.44-.218.356-.396.414-1.236.392-.809-.022-1-.085-1.146-.382-.076-.16-.09-.365-.13-1.845-.053-1.977-.021-4.83.054-5.15.085-.338.222-.507.547-.667.417-.204.435-.226.435-.533 0-.466.116-.44-2.066-.444l-1.876-.005-.106.107Zm57.15-.071c-.125.044-.187.187-.187.418.004.262.067.337.409.506.333.16.453.298.56.649.075.236.08.56.08 3.502 0 3.506-.01 3.648-.245 3.924-.062.08-.249.204-.409.28-.213.102-.306.178-.35.28-.072.173-.032.453.088.569.085.084.182.088 1.947.088 1.857 0 1.862 0 1.942-.102.102-.12.115-.497.022-.622-.036-.049-.196-.151-.356-.231-.506-.253-.56-.462-.56-2.275v-1.147l.494-.03a15.09 15.09 0 0 1 1.902 0l.497.03-.004 1.053c0 1.076-.053 1.8-.147 1.982-.093.187-.249.32-.489.427-.133.058-.262.151-.293.2-.115.218-.027.635.147.689.049.013.884.026 1.857.026.974 0 1.809-.013 1.858-.026.178-.058.253-.445.133-.68-.035-.071-.146-.156-.289-.213a3.489 3.489 0 0 1-.337-.152c-.151-.084-.285-.377-.338-.742-.062-.449-.062-6.47.004-6.777.076-.355.21-.515.578-.702.378-.186.471-.32.422-.604-.062-.36.01-.347-2.044-.351-1.826-.005-1.83-.005-1.933.102-.08.076-.107.156-.107.316 0 .297.062.386.342.515.547.24.591.4.627 2.182l.022 1.338h-2.91l.013-1.458c.018-1.369.022-1.471.115-1.67a.55.55 0 0 1 .307-.316c.116-.054.231-.103.258-.103.026 0 .106-.066.177-.146.107-.13.125-.183.103-.378-.036-.4.07-.378-1.996-.382-1 0-1.862.013-1.91.03Zm10.172 0c-.12.044-.187.182-.187.382 0 .267.084.387.369.52.71.338.715.369.693 4.502-.018 3.333-.018 3.36-.311 3.661a1.037 1.037 0 0 1-.333.214c-.28.089-.396.24-.396.515 0 .17.027.254.098.325.098.097.129.097 1.915.097.996 0 1.853-.004 1.898-.004.15-.004.266-.173.266-.4 0-.298-.062-.387-.364-.52-.347-.151-.507-.311-.604-.595-.067-.21-.08-.591-.094-3.453-.017-3.404-.004-3.711.191-4.004.063-.098.21-.205.4-.298.165-.08.338-.191.387-.249.147-.182.084-.604-.098-.684-.098-.04-3.715-.05-3.83-.01ZM28.317 44.71c-2.022.195-3.218 1.866-2.72 3.8.169.653.613 1.226 1.249 1.608.209.125.746.409 1.19.636.96.488 1.272.737 1.512 1.226.142.293.15.338.15.827 0 .6-.084.817-.404 1.048-.257.187-.497.245-.946.227a1.67 1.67 0 0 1-1.125-.467c-.355-.328-.528-.68-.604-1.217a.702.702 0 0 0-.133-.347c-.143-.164-.298-.124-.565.151-.275.28-.404.636-.404 1.093 0 .991.684 1.734 1.897 2.062.516.138 1.698.152 2.218.023 1.151-.29 1.906-.996 2.173-2.04.107-.409.107-1.315 0-1.724-.191-.747-.689-1.418-1.369-1.853-.2-.13-.71-.418-1.133-.64-.88-.471-1.093-.61-1.297-.84-.218-.25-.298-.436-.325-.747-.049-.609.191-1.164.596-1.369.368-.186.924-.124 1.28.147.257.196.368.489.382 1.004.009.405.022.454.12.534.084.07.155.084.342.062.289-.036.555-.213.755-.516.205-.302.262-.537.236-.986-.014-.302-.045-.422-.151-.622a2.134 2.134 0 0 0-.974-.862c-.488-.196-1.275-.285-1.95-.218Zm49.327.164c-.449.036-.995.063-1.218.067-.533.004-.648.08-.648.44 0 .133.026.284.062.329.035.044.195.15.36.23.27.13.315.174.435.414s.138.338.174.933c.053.925.048 5.444-.005 5.862-.093.702-.209.91-.64 1.115-.138.063-.28.16-.32.214-.138.195-.053.653.13.71.048.014.923.027 1.941.027h1.849l.106-.12c.12-.137.138-.369.054-.56-.036-.075-.151-.164-.316-.24-.586-.275-.649-.435-.706-1.862-.023-.564-.023-1.044-.005-1.062.058-.062.582.125.818.285.226.16.515.51.67.822.05.102.192.449.312.769.489 1.302.782 1.75 1.298 1.99.288.134.306.134 1.11.134.894 0 .974-.018 1.098-.267.094-.178.067-.51-.053-.644-.045-.053-.191-.125-.325-.165a1.891 1.891 0 0 1-.453-.204c-.262-.164-.453-.533-.71-1.378-.29-.937-.463-1.24-.89-1.555-.133-.098-.133-.107-.048-.16a3.146 3.146 0 0 0 1.097-1.23c.449-.907.502-2.48.12-3.32-.382-.832-1.195-1.365-2.4-1.57-.528-.088-1.688-.093-2.897-.004Zm2.88 1.378c.24.12.506.409.626.68.227.506.218 1.43-.009 2.044-.15.396-.497.742-.862.844-.306.09-.755.112-1.155.054l-.267-.04v-1.556c0-1.697.018-1.844.262-2.004.271-.178 1.058-.186 1.405-.022Zm-10.648-1.298c-.098.09-.315.716-1.284 3.698-1.44 4.435-1.458 4.488-1.684 4.96-.196.403-.352.55-.694.67-.346.111-.47.342-.377.684.035.13.084.2.155.223.129.044 2.733.044 2.862 0 .12-.036.204-.214.204-.427 0-.227-.066-.329-.28-.44-.315-.16-.328-.262-.133-.804l.098-.271h2.84l.075.177c.04.098.076.298.08.454.004.266 0 .28-.16.377-.307.196-.373.285-.373.485 0 .23.075.4.204.453.054.027.858.04 1.8.036 1.693-.014 1.702-.014 1.786-.116.098-.124.112-.498.018-.626-.03-.045-.218-.16-.404-.254-.258-.124-.382-.218-.476-.355-.146-.214-.026.093-1.924-4.897-1.644-4.311-1.555-4.133-1.982-4.133-.173 0-.262.026-.351.106Zm.742 5.497c.249.72.462 1.343.476 1.378.022.058-.116.067-.916.067-.884 0-.942-.005-.924-.085.089-.324.862-2.666.884-2.666.014 0 .231.587.48 1.306ZM37.751 44.95c-.533.044-3.08.071-4.142.04-.857-.022-.915-.005-.968.329-.05.284.044.417.417.604.64.32.64.342.622 4.43-.017 2.77-.026 3.134-.097 3.342a.923.923 0 0 1-.56.583c-.276.097-.382.244-.378.515.004.431-.147.405 2.342.405 1.298 0 2.48.022 2.92.053.835.067.924.049 1.008-.2.058-.187.33-1.507.33-1.622 0-.049-.045-.129-.099-.182-.075-.076-.142-.094-.337-.08-.223.013-.25.026-.391.222-.445.613-.431.609-1.391.604-.822 0-1-.04-1.12-.275-.102-.2-.16-.92-.165-2.062v-.965l.183-.03c.288-.05.884.053 1.084.186.173.111.373.4.435.627.05.16.196.315.334.35.115.027.293-.04.355-.133.018-.03.036-.804.036-1.724v-1.666l-.116-.116c-.089-.093-.142-.111-.244-.089-.191.049-.28.142-.365.396-.102.306-.306.573-.493.653-.107.044-.333.067-.67.067h-.516v-1.307c0-1.435.013-1.52.28-1.653.11-.058.32-.071.933-.071.91 0 1.004.026 1.266.395.302.423.365.467.622.467.2 0 .245-.018.316-.12.076-.12.071-.156-.076-.924-.164-.827-.226-1.022-.355-1.071-.093-.036-.418-.031-1 .022Zm24.869.07c-.094.085-.116.143-.116.33 0 .28.062.369.373.506.275.12.506.36.586.614.045.129.067.795.076 2.368.013 1.205.009 2.182 0 2.169-.013-.009-.644-1.324-1.409-2.915-.76-1.591-1.43-2.938-1.484-2.996-.098-.097-.142-.102-1.31-.124-1.28-.027-1.379-.013-1.472.187-.138.302.027.675.329.742.24.053.498.324.587.622.075.24.084.56.084 3.577 0 3.018-.009 3.338-.084 3.573-.09.298-.347.573-.583.622-.235.054-.355.227-.35.498 0 .173.026.267.097.333.089.09.156.094 1.649.09.858 0 1.582-.005 1.613-.005.133-.005.249-.187.249-.4 0-.302-.062-.387-.391-.533-.356-.16-.52-.343-.596-.667-.07-.307-.12-2.382-.089-3.697l.023-.982.102.208c.053.116.689 1.485 1.413 3.036.724 1.55 1.364 2.875 1.43 2.937.108.116.143.12.788.133l.675.018.124-.124.125-.13-.031-2.803c-.036-3.342.013-5.497.133-5.826a.792.792 0 0 1 .542-.511c.222-.067.418-.276.418-.458 0-.209-.093-.418-.204-.453-.058-.018-.796-.036-1.64-.036-1.516-.004-1.542 0-1.658.098Zm-22.056-.026c-.138.05-.2.183-.2.427 0 .267.062.347.422.52.622.302.618.275.622 4.16.005 3.283-.013 3.541-.222 3.861-.062.093-.213.205-.4.293-.164.08-.324.183-.36.232-.138.186-.049.644.134.702.048.017.795.03 1.657.03 1.476-.004 1.569-.008 1.653-.093.116-.115.16-.395.085-.568-.04-.094-.125-.17-.271-.236-.76-.347-.751-.311-.782-3.315-.018-1.218-.01-2.369.013-2.555l.035-.338.978 3.395c.533 1.867 1.004 3.453 1.04 3.529.093.186.253.226.795.208.4-.013.49-.03.57-.106.066-.071.377-1.085 1.075-3.546.542-1.898.995-3.462 1.008-3.476.014-.013.018 1.182.005 2.658-.018 2.897-.031 3.035-.271 3.297-.062.067-.24.178-.4.254-.329.146-.387.23-.387.528 0 .227.111.4.267.405h1.83c1.743.004 1.747.004 1.832-.098.053-.071.084-.182.084-.347 0-.266-.098-.404-.329-.47-.36-.103-.564-.365-.649-.836-.066-.373-.07-6.28 0-6.702.071-.444.218-.662.543-.817.15-.067.306-.156.35-.196.196-.173.134-.657-.093-.755-.16-.062-3.097-.027-3.226.044-.049.022-.116.125-.156.222-.035.094-.475 1.574-.973 3.289-.497 1.71-.915 3.097-.933 3.08-.018-.018-.467-1.4-1-3.067-1.129-3.542-1.11-3.493-1.249-3.564-.124-.062-2.941-.11-3.097-.049Zm12.212.005c-.125.044-.187.186-.187.422 0 .262.054.329.4.498.329.16.453.297.565.63.07.21.08.574.097 3.294.023 4.106.018 4.115-.697 4.452-.191.09-.28.16-.32.263-.076.173-.031.453.084.568.085.085.187.09 1.902.09 1 0 1.853-.005 1.898-.005.155-.005.27-.173.27-.4a.842.842 0 0 0-.048-.307c-.027-.049-.205-.164-.396-.253-.293-.138-.355-.191-.44-.36-.168-.356-.19-.747-.19-3.933 0-3.795-.01-3.715.59-4.013.156-.075.32-.169.36-.2.165-.142.13-.657-.053-.733-.102-.044-3.72-.058-3.835-.013Z"/></svg>